<?xml version="1.0" encoding="UTF-8"?>
<svg width="20px" height="20px" viewBox="0 0 20 20" version="1.1" xmlns="http://www.w3.org/2000/svg" xmlns:xlink="http://www.w3.org/1999/xlink">
    <g id="Page-1" stroke="none" stroke-width="1" fill="none" fill-rule="evenodd">
        <g id="checkbox" fill="#1DAF83" fill-rule="nonzero">
            <path d="M10,20 C4.477,20 0,15.523 0,10 C0,4.477 4.477,0 10,0 C15.523,0 20,4.477 20,10 C20,15.523 15.523,20 10,20 Z M10,18 C14.418278,18 18,14.418278 18,10 C18,5.581722 14.418278,2 10,2 C5.581722,2 2,5.581722 2,10 C2,14.418278 5.581722,18 10,18 Z M7.707,9.293 L9,10.586 L12.293,7.293 C12.6853789,6.9140278 13.3090848,6.91944765 13.6948186,7.3051814 C14.0805523,7.6909152 14.0859722,8.3146211 13.707,8.707 L9.707,12.707 C9.31650015,13.097382 8.68349985,13.097382 8.293,12.707 L6.293,10.707 C5.9140278,10.3146211 5.91944765,9.6909152 6.3051814,9.3051814 C6.6909152,8.91944765 7.3146211,8.9140278 7.707,9.293 Z" id="Shape"></path>
        </g>
    </g>
</svg>